<svg xmlns="http://www.w3.org/2000/svg" viewBox="0 0 256 256" fill="none">
  <rect x="28" y="34" width="200" height="190" rx="18" fill="#fffdf8" stroke="#203864" stroke-width="7"/>
  <path d="M60 24v36" stroke="#203864" stroke-width="10" stroke-linecap="round"/>
  <path d="M196 24v36" stroke="#203864" stroke-width="10" stroke-linecap="round"/>
  <path d="M28 72h200" stroke="#203864" stroke-width="7" stroke-linecap="round"/>
  <path d="M55 102h146" stroke="#d7e4f6" stroke-width="6" stroke-linecap="round"/>
  <path d="M55 132h146" stroke="#d7e4f6" stroke-width="6" stroke-linecap="round"/>
  <path d="M55 162h146" stroke="#d7e4f6" stroke-width="6" stroke-linecap="round"/>
  <path d="M55 192h106" stroke="#d7e4f6" stroke-width="6" stroke-linecap="round"/>
  <rect x="46" y="84" width="58" height="34" rx="8" fill="#f6e8a5" stroke="#9b7c00" stroke-width="4" transform="rotate(-2 46 84)"/>
  <text x="54" y="105" font-size="20" font-family="Trebuchet MS, Comic Sans MS, Arial, sans-serif" fill="#203864" transform="rotate(-2 54 105)">Month</text>
  <path d="M132 120c18 -14 42 8 28 26c-8 10-20 11-30 20c-8-9-20-10-28-20c-13-16 10-38 30-26z" fill="#ffd38a" stroke="#c67a00" stroke-width="4"/>
  <path d="M176 176l22 10" stroke="#203864" stroke-width="5" stroke-linecap="round"/>
  <path d="M188 164l8 24" stroke="#203864" stroke-width="5" stroke-linecap="round"/>
</svg>
